<?xml version="1.0" standalone="no"?>
<!DOCTYPE svg PUBLIC "-//W3C//DTD SVG 20010904//EN"
 "http://www.w3.org/TR/2001/REC-SVG-20010904/DTD/svg10.dtd">
<svg version="1.0" xmlns="http://www.w3.org/2000/svg"
 width="540.000000pt" height="540.000000pt" viewBox="0 0 540.000000 540.000000"
 preserveAspectRatio="xMidYMid meet">

<g transform="translate(0.000000,540.000000) scale(0.100000,-0.100000)"
fill="#000000" stroke="none">
<path d="M2460 4215 c-97 -19 -216 -68 -302 -125 -86 -56 -197 -170 -247 -254
-19 -32 -139 -299 -266 -594 l-232 -537 -384 -3 -384 -3 -122 -287 c-67 -158
-138 -324 -157 -369 l-35 -83 382 0 382 0 157 368 156 367 434 3 433 2 155
363 155 362 530 5 530 5 12 25 c11 23 288 665 318 738 l14 32 -732 -1 c-556
-1 -748 -4 -797 -14z"/>
<path d="M4148 3072 l-156 -367 -434 -3 -433 -2 -155 -363 -155 -362 -530 -5
-530 -5 -12 -25 c-11 -23 -288 -665 -319 -738 l-13 -33 757 3 c842 4 800 1
960 74 142 65 284 190 361 319 19 31 139 298 266 593 l232 537 384 5 383 5
133 310 c73 171 144 336 158 368 l24 57 -382 0 -382 0 -157 -368z"/>
</g>
</svg>
