<svg width="924" height="122" viewBox="0 0 924 122" fill="none" xmlns="http://www.w3.org/2000/svg">
<g clip-path="url(#clip0_1_1298)">
<path d="M145.206 60.7119L127.591 101.52C122.373 113.605 110.536 121.423 97.4528 121.423H42.8786L56.4694 89.8945H97.4528C98.0757 89.8945 98.6399 89.5226 98.8884 88.9473L110.901 60.7119H145.206ZM30.2917 90.0879H-0.000305176L12.5583 60.7119H42.8796L30.2917 90.0879ZM131.619 31.5283H90.6345C90.0115 31.5283 89.4474 31.9001 89.1989 32.4756L77.1862 60.7109H42.8825L60.4977 19.9033C65.7149 7.8174 77.5515 0 90.6345 0H145.209L131.619 31.5283ZM175.498 60.7109H145.206L157.764 31.335H188.085L175.498 60.7109Z" fill="black"/>
<path d="M329.575 39.8293H313.806C312.519 24.0266 302.703 17.7377 289.509 17.7377C277.28 17.7377 267.465 23.7041 267.465 34.3467C267.465 45.7956 275.349 48.8594 285.164 51.7619L301.416 56.4382C317.668 61.1145 331.666 67.8871 331.666 87.2374C331.666 109.813 314.771 121.423 292.083 121.423C267.948 121.423 249.765 109.813 248.8 82.7223H264.408C265.212 100.621 276.797 107.716 291.762 107.716C306.243 107.716 316.058 101.266 316.058 88.2049C316.058 76.5947 306.243 73.0472 294.819 69.8221L281.464 65.9521C266.017 61.437 252.018 55.1482 252.018 35.153C252.018 15.964 268.913 4.19256 289.67 4.19256C312.036 4.19256 327.966 15.8027 329.575 39.8293Z" fill="black"/>
<path d="M350.254 119.488V38.0555H364.413V49.5044C370.367 40.7968 379.699 36.1205 390.319 36.1205C409.628 36.1205 421.535 49.3431 421.535 68.0484V119.488H406.732V71.4347C406.732 58.5345 400.295 49.6656 386.618 49.6656C372.62 49.6656 365.057 60.9533 365.057 72.8859V119.488H350.254Z" fill="black"/>
<path d="M481.816 36.1205C506.917 36.1205 525.1 55.3095 525.1 78.691C525.1 102.234 506.917 121.423 481.816 121.423C456.554 121.423 438.532 102.234 438.532 78.691C438.532 55.3095 456.554 36.1205 481.816 36.1205ZM481.816 49.8269C465.403 49.8269 453.175 62.7271 453.175 78.691C453.175 94.8162 465.403 107.716 481.816 107.716C498.228 107.716 510.457 94.8162 510.457 78.691C510.457 62.7271 498.228 49.8269 481.816 49.8269Z" fill="black"/>
<path d="M560.548 119.488L532.068 38.0555H546.871L568.593 101.911L590.316 38.0555H604.476L626.359 102.073L648.081 38.0555H662.402L633.921 119.488H619.118L597.235 56.922L575.512 119.488H560.548Z" fill="black"/>
<path d="M676.981 119.488V0H691.785V51.2782C698.704 42.0868 709.485 36.1205 722.84 36.1205C746.493 36.1205 763.71 54.5032 763.71 78.5298C763.71 102.879 746.332 121.423 722.357 121.423C708.841 121.423 698.06 115.134 691.141 105.459V119.488H676.981ZM719.783 49.6656C703.209 49.6656 691.302 62.7271 691.302 78.691C691.302 94.8162 703.209 107.878 719.783 107.878C736.517 107.878 748.424 94.655 748.424 78.691C748.424 62.8883 736.517 49.6656 719.783 49.6656Z" fill="black"/>
<path d="M831.308 107.878C824.872 117.069 814.574 121.423 804.115 121.423C788.346 121.423 776.922 111.909 776.922 98.3638C776.922 84.9798 785.289 76.5947 803.15 72.4022L830.825 65.9521V64.8233C830.825 55.3095 823.746 48.6981 812.321 48.6981C801.38 48.6981 794.3 55.3095 793.012 63.6946H778.853C780.301 48.6981 793.495 36.1205 812.482 36.1205C834.204 36.1205 845.307 49.0206 845.307 66.5971V119.488H831.308V107.878ZM830.825 84.0123V78.046L806.85 83.6898C797.035 85.9473 791.564 90.3011 791.564 97.0737C791.564 104.814 797.357 109.168 806.85 109.168C821.01 109.168 830.825 96.9125 830.825 84.0123Z" fill="black"/>
<path d="M869.09 119.488V0H883.893V119.488H869.09Z" fill="black"/>
<path d="M908.964 119.488V0H923.768V119.488H908.964Z" fill="black"/>
</g>
<defs>
<clipPath id="clip0_1_1298">
<rect width="923.766" height="121.423" fill="white"/>
</clipPath>
</defs>
</svg>
